# xmcd
#
# Track frame offsets:
#	150
#	12570
#	25145
#	38780
#	59132
#	77950
#	91617
#	102802
#	116570
#	128400
#	141635
#
# Disc length: 2052 seconds
#
# Revision: 0
# Processed by: cddbd v1.5.1PL2 Copyright (c) Steve Scherf et al.
# Submitted via: dBpowerAMP V4.0
#
DISCID=9008020b
DTITLE=Various Artist - Singin' The Blues
DYEAR=1996
DGENRE=Blues
TTITLE0=Bright Lights, Big City - Jimmy Reed
TTITLE1=Dust My Broom - Elmore James
TTITLE2=Every Second A Fool Is Born - Lowell Fulson
TTITLE3=New Way Of Lovin' - Willie Dixon
TTITLE4=I Feel Good - John Lee Hooker
TTITLE5=Night Time Is The Right Time - Big Joe Turner
TTITLE6=Tickle Britches - B.B. King
TTITLE7=Fine Boogie - Snooky Pryor
TTITLE8=Try To Quit You Baby - Buddy Guy
TTITLE9=All Your Love - Magic Sam
TTITLE10=Otis Rush - Double Trouble - Various
EXTD=
EXTT0=
EXTT1=
EXTT2=
EXTT3=
EXTT4=
EXTT5=
EXTT6=
EXTT7=
EXTT8=
EXTT9=
EXTT10=
PLAYORDER=
